<svg width="65" height="46" viewBox="0 0 65 46" fill="none" xmlns="http://www.w3.org/2000/svg">
<path d="M27.8571 13.2979L13.4483 45.9997H1.86355L16.3301 13.2979H0L4.32265 3.67969H21.8983L27.8571 13.2979Z" fill="url(#paint0_linear_1028_8356)"/>
<path d="M22.2861 0L28.6417 10.12L33.429 0H30.8703H22.2861Z" fill="#06B6D4"/>
<path fill-rule="evenodd" clip-rule="evenodd" d="M21.8392 37.9532C21.2988 37.0942 20.0108 37.1697 19.5768 38.0857L16.8373 44.1829C16.4365 45.0287 17.0606 45.9996 18.0049 45.9996H24.7081C25.7197 45.9996 26.3373 44.9 25.8029 44.0504L21.8392 37.9532ZM22.7186 43.8132C22.8631 43.8132 22.9513 43.6561 22.875 43.5348L21.0377 40.8176C20.9605 40.6949 20.7765 40.7057 20.7145 40.8366L19.5768 43.5537C19.5195 43.6745 19.6086 43.8132 19.7436 43.8132H22.7186Z" fill="#06B6D4"/>
<path fill-rule="evenodd" clip-rule="evenodd" d="M38.2955 2.13014e-09C37.778 -2.92008e-05 37.3093 0.300205 37.1004 0.765518L22.8231 32.5698L22.3878 33.5843C22.2201 33.9751 22.2597 34.4221 22.4935 34.7786L27.6572 42.6517C28.2175 43.5059 29.5176 43.4119 29.9446 42.4864L34.5199 32.5698L36.5306 28.1085C36.6203 27.9095 36.821 27.7812 37.0425 27.7812H45.8601C46.3741 27.7812 46.8403 27.4849 47.0512 27.0243L50.262 20.0122C50.6509 19.1628 50.0187 18.2018 49.0709 18.2018H41.2824C41.1475 18.2018 41.0571 18.0654 41.1118 17.9441L44.734 9.90735C44.8237 9.70834 45.0244 9.58001 45.2458 9.58001H60.481C60.995 9.58001 61.4612 9.28376 61.6721 8.82312L64.8829 1.81104C65.2719 0.961587 64.6396 0.000615315 63.6918 0.000615315L38.2955 2.13014e-09ZM39.2067 2.10742C38.9849 2.10742 38.7841 2.23609 38.6946 2.4355L24.8978 33.1694C24.825 33.3315 24.8362 33.5181 24.9277 33.6707L28.5641 39.7365C28.6409 39.8647 28.8329 39.8544 28.895 39.7187L32.5592 31.7163L34.9384 26.4375C35.1477 25.9731 35.6159 25.6737 36.1327 25.6737H44.9562C45.1764 25.6737 45.3762 25.5468 45.4666 25.3493L47.656 20.5679C47.7116 20.4465 47.6213 20.3092 47.4858 20.3092H39.7076C38.7631 20.3092 38.1308 19.3544 38.5133 18.5057L43.1418 8.23633C43.3511 7.77198 43.8193 7.47255 44.336 7.47255H59.5771C59.7974 7.47255 59.9972 7.34558 60.0876 7.14817L62.2769 2.3667C62.3325 2.24535 62.2422 2.10807 62.1068 2.10807L39.2067 2.10742Z" fill="url(#paint1_linear_1028_8356)"/>
<defs>
<linearGradient id="paint0_linear_1028_8356" x1="4.22939" y1="3.6707" x2="12.4786" y2="46.0148" gradientUnits="userSpaceOnUse">
<stop stop-color="#06B6D4"/>
<stop offset="0.489826" stop-color="#14B8A6"/>
<stop offset="1" stop-color="#FBBF24"/>
</linearGradient>
<linearGradient id="paint1_linear_1028_8356" x1="28.8597" y1="42.9017" x2="70.483" y2="5.26783" gradientUnits="userSpaceOnUse">
<stop stop-color="#06B6D4"/>
<stop offset="0.489826" stop-color="#14B8A6"/>
<stop offset="1" stop-color="#FBBF24"/>
</linearGradient>
</defs>
</svg>
