<svg width="24" height="24" viewBox="0 0 24 24" fill="none" xmlns="http://www.w3.org/2000/svg">
<path d="M21 21.5H3C2.86614 21.5 2.75 21.3839 2.75 21.25C2.75 21.1161 2.86614 21 3 21H21C21.1339 21 21.25 21.1161 21.25 21.25C21.25 21.3839 21.1339 21.5 21 21.5Z" fill="#14B8A6" stroke="#14B8A6"/>
<path d="M18.666 3.83322L18.666 3.83323L18.6678 3.83499C19.6128 4.77049 19.9978 5.60837 19.9896 6.41462L19.9896 6.41462V6.41967C19.9896 7.19713 19.6047 8.02695 18.6678 8.95433L18.6678 8.95431L18.6646 8.95759L17.5051 10.1268C15.0571 9.40877 13.0952 7.44861 12.3747 5.00167L13.5431 3.83322C14.4855 2.89086 15.3371 2.50084 16.1201 2.50591C16.9049 2.51098 17.7464 2.91355 18.666 3.83322Z" fill="#14B8A6" stroke="#14B8A6"/>
<path d="M15.4021 11.9845L15.3929 11.9801C15.1006 11.8389 14.8049 11.6915 14.516 11.5203L15.4021 11.9845ZM15.4021 11.9845L15.4115 11.9886M15.4021 11.9845L15.4115 11.9886M15.4115 11.9886C15.4512 12.0058 15.4905 12.0227 15.5294 12.0393C15.5351 12.0417 15.5383 12.0445 15.5409 12.0478C15.5441 12.0518 15.547 12.0576 15.5484 12.0641C15.5495 12.0693 15.5492 12.0727 15.549 12.074C15.5488 12.0742 15.5485 12.0745 15.5481 12.0749L9.82677 17.7963L9.8197 17.8033L9.81292 17.8107C9.81385 17.8097 9.80562 17.8184 9.78354 17.8337C9.76257 17.8483 9.73554 17.8644 9.70421 17.8801C9.64012 17.9121 9.58299 17.93 9.55239 17.9358L5.72069 18.4747L5.72067 18.4745L5.70812 18.4766C5.61491 18.4921 5.5224 18.4998 5.43032 18.4998C5.00917 18.4998 4.6405 18.3531 4.38352 18.1058C4.09003 17.8022 3.93489 17.3273 4.01501 16.7826L4.01542 16.7796L4.55379 12.9612C4.55951 12.9343 4.5771 12.8793 4.61003 12.8134C4.64591 12.7416 4.67989 12.6973 4.69387 12.6834L10.4223 6.95489C10.4224 6.95485 10.4224 6.95481 10.4225 6.95477C10.4234 6.95481 10.4247 6.95495 10.4263 6.9553C10.4312 6.95633 10.4364 6.9587 10.4408 6.96216C10.4444 6.96508 10.4482 6.96927 10.4516 6.97676C10.4727 7.0245 10.4946 7.07268 10.5172 7.12125L10.5171 7.12132M15.4115 11.9886L10.5171 7.12132M10.5171 7.12132L10.5231 7.13341M10.5171 7.12132L10.5231 7.13341M10.5231 7.13341C10.6649 7.41692 10.811 7.69925 10.98 7.98444C11.1073 8.19986 11.2557 8.43571 11.3945 8.61275C11.548 8.84503 11.7162 9.04625 11.8145 9.16394C11.8201 9.17066 11.8255 9.1771 11.8307 9.18326C11.8388 9.19377 11.8481 9.20586 11.8578 9.21848C11.8792 9.24638 11.9026 9.27684 11.9199 9.2984C11.9353 9.31765 11.9553 9.342 11.9775 9.36592C11.985 9.37406 11.9966 9.38632 12.0117 9.40063C12.3512 9.80755 12.7256 10.1716 13.0617 10.4582C13.1032 10.4992 13.1434 10.5365 13.1786 10.5673C13.198 10.5844 13.2188 10.6018 13.2392 10.6178L13.2404 10.6187C13.2456 10.6227 13.2564 10.6312 13.2714 10.6417C13.4546 10.7954 13.6611 10.9606 13.8487 11.0831M10.5231 7.13341L13.8487 11.0831M13.8487 11.0831C14.0642 11.2367 14.2834 11.3828 14.5154 11.52L13.8487 11.0831Z" fill="#14B8A6" stroke="#14B8A6"/>
</svg>
