<svg width="120" height="120" viewBox="0 0 120 120" fill="none" xmlns="http://www.w3.org/2000/svg">
<rect x="1" y="1" width="118" height="118" rx="15" fill="#4B5563"/>
<path d="M53.0003 83.3337H67.0003C78.667 83.3337 83.3337 78.667 83.3337 67.0003V53.0003C83.3337 41.3337 78.667 36.667 67.0003 36.667H53.0003C41.3337 36.667 36.667 41.3337 36.667 53.0003V67.0003C36.667 78.667 41.3337 83.3337 53.0003 83.3337Z" stroke="#9CA3AF" stroke-width="4" stroke-linecap="round" stroke-linejoin="round"/>
<path d="M52.9997 55.3333C55.577 55.3333 57.6663 53.244 57.6663 50.6667C57.6663 48.0893 55.577 46 52.9997 46C50.4223 46 48.333 48.0893 48.333 50.6667C48.333 53.244 50.4223 55.3333 52.9997 55.3333Z" stroke="#9CA3AF" stroke-width="4" stroke-linecap="round" stroke-linejoin="round"/>
<path d="M38.2305 76.2166L49.7338 68.4933C51.5771 67.2566 54.2371 67.3966 55.8938 68.82L56.6638 69.4966C58.4838 71.06 61.4238 71.06 63.2438 69.4966L72.9505 61.1666C74.7705 59.6033 77.7105 59.6033 79.5305 61.1666L83.3338 64.4333" stroke="#9CA3AF" stroke-width="4" stroke-linecap="round" stroke-linejoin="round"/>
<rect x="1" y="1" width="118" height="118" rx="15" stroke="#9CA3AF" stroke-width="2"/>
</svg>
